<svg width="346" height="60" viewBox="0 0 346 60" fill="none" xmlns="http://www.w3.org/2000/svg">
<path d="M80.8044 10C78.3167 10 75.8534 10.4935 73.555 11.4524C71.2567 12.4113 69.1684 13.8167 67.4093 15.5885C65.6502 17.3603 64.2548 19.4637 63.3028 21.7786C62.3508 24.0936 61.8608 26.5747 61.8608 29.0804C61.8608 31.5861 62.3508 34.0672 63.3028 36.3821C64.2548 38.6971 65.6502 40.8005 67.4093 42.5723C69.1684 44.344 71.2567 45.7495 73.555 46.7084C75.8534 47.6672 78.3167 48.1608 80.8044 48.1608C83.2921 48.1608 85.7555 47.6672 88.0538 46.7084C90.3522 45.7495 92.4405 44.344 94.1996 42.5723C95.9587 40.8005 97.354 38.6971 98.306 36.3821C99.258 34.0672 99.748 31.5861 99.748 29.0804C99.748 26.5747 99.258 24.0936 98.306 21.7786C97.354 19.4637 95.9587 17.3603 94.1996 15.5885C92.4405 13.8167 90.3522 12.4113 88.0538 11.4524C85.7555 10.4935 83.2921 10 80.8044 10ZM80.8044 17.3625C83.8899 17.3625 86.849 18.5971 89.0308 20.7946C91.2126 22.9921 92.4383 25.9726 92.4383 29.0804C92.4383 32.1882 91.2126 35.1686 89.0308 37.3662C86.849 39.5637 83.8899 40.7982 80.8044 40.7982C77.7455 40.7171 74.8389 39.4359 72.7042 37.2277C70.5695 35.0195 69.3754 32.0588 69.3765 28.9767C69.3765 25.8964 70.5914 22.9423 72.7538 20.7642C74.9163 18.5862 77.8492 17.3625 80.9074 17.3625H80.8044Z" fill="#FF0000"/>
<path d="M34.166 10.4902C31.6783 10.4902 29.215 10.9838 26.9166 11.9426C24.6183 12.9015 22.5299 14.307 20.7709 16.0787C19.0118 17.8505 17.6164 19.9539 16.6644 22.2689C15.7124 24.5838 15.2224 27.0649 15.2224 29.5706C15.2224 32.0763 15.7124 34.5574 16.6644 36.8724C17.6164 39.1873 19.0118 41.2907 20.7709 43.0625C22.5299 44.8343 24.6183 46.2397 26.9166 47.1986C29.215 48.1575 31.6783 48.651 34.166 48.651C39.7373 48.4238 45.0085 46.0477 48.8885 42.0143L43.9467 36.5184C41.4098 39.2025 37.944 40.7994 34.269 40.9774C31.412 40.7045 28.7587 39.3685 26.8276 37.2303C24.8965 35.0922 23.8264 32.3056 23.8264 29.4151C23.8264 26.5246 24.8965 23.738 26.8276 21.5998C28.7587 19.4616 31.412 18.1256 34.269 17.8528C36.1327 17.929 37.959 18.4029 39.6273 19.2431C41.2957 20.0833 42.7679 21.2706 43.9467 22.7266L48.8885 16.7121C44.973 12.7858 39.6908 10.5535 34.166 10.4902V10.4902ZM135.37 48.3399L150.093 10.6976H141.444L131.149 39.0071L120.854 10.6976H111.794L126.413 48.3399H135.37ZM172.948 48.3399V10.6976H164.506V48.3399H172.948ZM191.377 10.6976V48.3399H206.923C209.501 48.5573 212.096 48.2287 214.54 47.3754C216.984 46.522 219.223 45.1627 221.114 43.385C223.005 41.6073 224.506 39.4505 225.52 37.0534C226.533 34.6563 227.037 32.0721 227 29.4669C227.049 26.8992 226.567 24.3492 225.582 21.9801C224.598 19.611 223.133 17.4749 221.283 15.7083C219.432 13.9418 217.235 12.5837 214.834 11.7209C212.432 10.8581 209.878 10.5096 207.335 10.6976H191.377ZM199.82 17.8528H207.129C208.642 17.8207 210.146 18.1059 211.543 18.6903C212.941 19.2747 214.203 20.1456 215.249 21.2476C216.294 22.3496 217.101 23.6586 217.617 25.0914C218.134 26.5242 218.349 28.0496 218.248 29.5706C218.424 31.0331 218.288 32.5165 217.85 33.922C217.412 35.3275 216.681 36.6228 215.707 37.7217C214.733 38.8206 213.538 39.6978 212.201 40.2949C210.864 40.8921 209.416 41.1954 207.953 41.1848H200.334L199.82 17.8528ZM255.312 34.6518V29.1558H241.619V34.6518H255.312ZM284.551 48.3399V10.6976H269.108V17.8528H276.109V48.3399H284.551ZM314.82 48.3399C317.265 48.3191 319.678 47.7731 321.898 46.7381C324.117 45.7032 326.092 44.2033 327.69 42.3385C329.288 40.4737 330.473 38.2869 331.165 35.9242C331.857 33.5615 332.041 31.0773 331.704 28.6373C331.704 17.1269 325.733 10.0754 315.849 10.0754C314.087 9.87831 312.304 10.0686 310.622 10.6333C308.94 11.198 307.4 12.1235 306.108 13.346C304.816 14.5685 303.803 16.0589 303.138 17.7143C302.474 19.3696 302.174 21.1505 302.259 22.934C302.024 24.6064 302.164 26.3106 302.668 27.9215C303.173 29.5323 304.029 31.0088 305.175 32.2423C306.321 33.4758 307.726 34.435 309.288 35.0494C310.85 35.6637 312.529 35.9177 314.202 35.7925C316 35.9106 317.799 35.574 319.436 34.8134C321.072 34.0527 322.493 32.8922 323.571 31.4372C323.571 38.0738 320.688 41.8069 314.305 41.8069C311.453 41.8297 308.658 40.9997 306.274 39.4219L303.083 45.6438C306.684 47.6195 310.719 48.6535 314.82 48.651V48.3399ZM316.055 28.5336C315.29 28.6414 314.511 28.5777 313.773 28.3472C313.035 28.1167 312.356 27.725 311.786 27.2001C311.216 26.6751 310.768 26.0299 310.473 25.3104C310.179 24.5909 310.046 23.8149 310.084 23.0377C310.014 22.2166 310.129 21.3903 310.42 20.62C310.71 19.8497 311.169 19.155 311.762 18.5875C312.356 18.0199 313.068 17.594 313.847 17.3411C314.625 17.0883 315.45 17.0151 316.261 17.1269C317.058 17.0216 317.868 17.0917 318.636 17.3323C319.403 17.5728 320.11 17.9781 320.707 18.5202C321.303 19.0624 321.777 19.7284 322.093 20.4725C322.41 21.2166 322.563 22.021 322.541 22.8303C322.541 26.0449 320.173 28.5336 316.055 28.5336V28.5336Z" fill="white"/>
</svg>
